<?xml version="1.0" standalone="no"?>
<!DOCTYPE svg PUBLIC "-//W3C//DTD SVG 20010904//EN"
 "http://www.w3.org/TR/2001/REC-SVG-20010904/DTD/svg10.dtd">
<svg version="1.0" xmlns="http://www.w3.org/2000/svg"
 width="700.000000pt" height="700.000000pt" viewBox="0 0 700.000000 700.000000"
 preserveAspectRatio="xMidYMid meet">
<metadata>
Created by potrace 1.11, written by Peter Selinger 2001-2013
</metadata>
<g transform="translate(0.000000,700.000000) scale(0.100000,-0.100000)"
fill="#000000" stroke="none">
<path d="M3578 6754 c-2 -1 -41 -5 -88 -8 -47 -4 -125 -13 -175 -21 -49 -8
-117 -16 -149 -20 -33 -3 -71 -7 -85 -9 -14 -3 -46 -7 -71 -10 -25 -4 -52 -8
-60 -10 -8 -1 -37 -6 -65 -11 -42 -6 -109 -20 -200 -40 -11 -3 -60 -16 -110
-30 -49 -14 -97 -28 -105 -30 -41 -11 -246 -87 -311 -115 -71 -31 -298 -141
-329 -160 -8 -5 -67 -41 -130 -80 -350 -215 -660 -496 -903 -820 -31 -41 -60
-79 -64 -85 -52 -64 -181 -282 -253 -425 -98 -196 -214 -509 -245 -660 -2 -8
-15 -71 -29 -140 -14 -69 -28 -147 -31 -175 -4 -27 -8 -61 -11 -75 -27 -156
-24 -568 6 -795 9 -71 15 -107 35 -218 7 -34 37 -160 58 -238 84 -313 271
-702 473 -985 174 -244 450 -533 663 -693 25 -19 48 -38 51 -42 10 -13 276
-186 355 -231 245 -139 592 -281 815 -334 36 -9 72 -17 80 -19 99 -24 242 -50
335 -61 22 -2 54 -7 70 -9 164 -26 622 -26 790 0 17 2 66 9 110 15 150 20 406
79 530 121 141 48 310 114 313 121 2 4 11 8 19 8 14 0 224 102 303 147 326
187 593 401 855 687 123 133 288 362 394 543 57 99 171 329 171 345 0 8 4 18
9 23 31 34 138 371 179 565 21 95 27 129 37 205 3 22 7 49 10 60 27 128 27
639 0 820 -2 17 -7 62 -10 100 -3 39 -7 80 -9 90 -2 11 -7 49 -11 85 -4 36 -9
68 -11 71 -2 4 -6 24 -10 45 -3 22 -18 93 -34 159 -176 722 -600 1340 -1232
1793 -47 34 -89 62 -92 62 -3 0 -24 13 -48 29 -100 67 -324 179 -488 244 -228
91 -536 169 -755 192 -33 3 -73 8 -90 11 -30 6 -453 13 -457 8z m-2318 -5588
c0 -2 -8 -10 -17 -17 -16 -13 -17 -12 -4 4 13 16 21 21 21 13z m1190 -282 c0
-8 -19 -13 -24 -6 -3 5 1 9 9 9 8 0 15 -2 15 -3z"/>
</g>
</svg>
