<?xml version="1.0" standalone="no"?>
<!DOCTYPE svg PUBLIC "-//W3C//DTD SVG 20010904//EN"
 "http://www.w3.org/TR/2001/REC-SVG-20010904/DTD/svg10.dtd">
<svg version="1.0" xmlns="http://www.w3.org/2000/svg"
 width="700.000000pt" height="700.000000pt" viewBox="0 0 700.000000 700.000000"
 preserveAspectRatio="xMidYMid meet">
<metadata>
Created by potrace 1.11, written by Peter Selinger 2001-2013
</metadata>
<g transform="translate(0.000000,700.000000) scale(0.100000,-0.100000)"
fill="#000000" stroke="none">
<path d="M3060 6693 c-14 -2 -70 -11 -125 -19 -550 -86 -1090 -324 -1552 -684
-135 -105 -424 -392 -529 -525 -661 -836 -872 -1882 -587 -2900 83 -295 241
-634 423 -905 165 -245 450 -555 675 -733 314 -249 660 -438 1026 -561 248
-84 411 -121 676 -157 190 -26 599 -32 778 -11 456 53 834 166 1221 366 541
280 990 695 1308 1209 339 548 509 1218 470 1852 l-8 140 -7 -160 c-10 -214
-25 -341 -59 -515 -118 -595 -391 -1115 -814 -1549 -262 -268 -516 -452 -851
-616 -315 -155 -597 -241 -955 -292 -194 -27 -635 -24 -830 6 -539 83 -998
273 -1415 587 -697 523 -1139 1319 -1216 2184 -17 190 -7 546 21 725 92 608
359 1172 766 1614 424 460 928 762 1527 916 115 29 139 41 57 28z"/>
<path d="M1999 4981 c-171 -73 -348 -211 -444 -345 -130 -185 -188 -370 -188
-611 0 -153 14 -228 60 -319 33 -65 120 -156 183 -190 129 -70 339 -73 470 -6
59 30 134 104 162 162 57 112 58 275 4 393 -43 95 -152 182 -250 199 -38 7
-38 7 -33 48 14 107 123 253 240 321 l65 39 -75 126 c-41 70 -86 146 -100 170
-14 23 -26 42 -26 42 -1 0 -32 -13 -68 -29z"/>
<path d="M3095 4982 c-266 -120 -420 -263 -539 -499 -115 -230 -135 -566 -44
-760 59 -126 175 -221 305 -248 187 -40 338 -2 453 114 91 90 127 223 100 368
-29 156 -134 275 -269 304 l-53 11 6 42 c17 110 130 259 249 326 55 31 57 34
44 54 -8 11 -53 87 -101 169 -48 81 -88 147 -89 147 -1 -1 -29 -13 -62 -28z"/>
<path d="M4410 3669 c-116 -14 -209 -59 -273 -132 -103 -118 -125 -303 -56
-465 41 -95 179 -202 260 -202 32 0 32 0 25 -42 -17 -116 -125 -260 -246 -329
-33 -19 -58 -36 -57 -40 17 -43 196 -329 206 -329 30 0 227 105 302 162 177
133 315 344 364 556 36 152 37 361 5 484 -18 67 -70 157 -122 210 -53 54 -167
114 -232 122 -88 11 -123 12 -176 5z"/>
<path d="M5500 3669 c-118 -13 -212 -62 -283 -147 -91 -108 -111 -301 -46
-446 44 -101 177 -206 260 -206 31 0 32 0 26 -42 -15 -112 -132 -268 -251
-334 l-55 -30 94 -160 c52 -87 101 -163 109 -168 23 -15 227 92 326 171 156
125 290 328 339 513 43 158 48 358 14 494 -61 247 -268 385 -533 355z"/>
</g>
</svg>
