<?xml version="1.0" encoding="UTF-8" standalone="no"?>
<!-- Created with Inkscape (http://www.inkscape.org/) -->

<svg
   xmlns:dc="http://purl.org/dc/elements/1.1/"
   xmlns:cc="http://creativecommons.org/ns#"
   xmlns:rdf="http://www.w3.org/1999/02/22-rdf-syntax-ns#"
   xmlns:svg="http://www.w3.org/2000/svg"
   xmlns="http://www.w3.org/2000/svg"
   xmlns:sodipodi="http://sodipodi.sourceforge.net/DTD/sodipodi-0.dtd"
   xmlns:inkscape="http://www.inkscape.org/namespaces/inkscape"
   width="512"
   height="512"
   viewBox="0 0 512 512"
   id="svg2"
   version="1.1"
   inkscape:version="0.91 r13725"
   sodipodi:docname="drawing.svg"
   inkscape:export-filename="/home/cbdavide/Descargas/drawing.png"
   inkscape:export-xdpi="90"
   inkscape:export-ydpi="90">
  <defs
     id="defs4" />
  <sodipodi:namedview
     id="base"
     pagecolor="#ffffff"
     bordercolor="#666666"
     borderopacity="1.0"
     inkscape:pageopacity="0.0"
     inkscape:pageshadow="2"
     inkscape:zoom="0.35"
     inkscape:cx="-295"
     inkscape:cy="418.57143"
     inkscape:document-units="px"
     inkscape:current-layer="layer2"
     showgrid="false"
     inkscape:window-width="1366"
     inkscape:window-height="702"
     inkscape:window-x="0"
     inkscape:window-y="27"
     inkscape:window-maximized="1"
     units="px" />
  <metadata
     id="metadata7">
    <rdf:RDF>
      <cc:Work
         rdf:about="">
        <dc:format>image/svg+xml</dc:format>
        <dc:type
           rdf:resource="http://purl.org/dc/dcmitype/StillImage" />
        <dc:title></dc:title>
      </cc:Work>
    </rdf:RDF>
  </metadata>
  <g
     inkscape:label="Capa 1"
     inkscape:groupmode="layer"
     id="layer1"
     transform="translate(0,-540.36216)">
    <ellipse
       style="opacity:1;fill:#1e90ff;fill-opacity:0.94117647;stroke:#0099ff;stroke-width:3.09087276;stroke-linecap:round;stroke-linejoin:bevel;stroke-miterlimit:4;stroke-dasharray:none;stroke-opacity:1"
       id="path4144"
       cx="255.71426"
       cy="799.94336"
       rx="243.79372"
       ry="237.63425" />
  </g>
  <g
     inkscape:groupmode="layer"
     id="layer2"
     inkscape:label="Capa 2"
     style="display:inline"
     transform="translate(0,-540.36216)">
    <ellipse
       style="opacity:1;fill:#ffffff;fill-opacity:1;fill-rule:nonzero;stroke:none;stroke-width:2.11027741;stroke-linecap:round;stroke-linejoin:bevel;stroke-miterlimit:4;stroke-dasharray:none;stroke-opacity:1"
       id="path4147"
       cx="274.46765"
       cy="782.96942"
       rx="225.03284"
       ry="224.89622" />
    <g
       id="g4253"
       transform="matrix(4.5227761,0,0,4.5417344,293.83868,783.46184)"
       style="fill:#0099ff;fill-opacity:1">
      <path
         id="path4255"
         d="m 18.006,6.538 c 0,-1.973 0.662,-3.554 1.988,-4.743 1.326,-1.19 2.977,-1.785 4.947,-1.785 2.517,0 4.488,0.799 5.916,2.397 C 32.285,4.004 33,6.13 33,8.782 c 0,2.719 -0.424,5.032 -1.275,6.936 -0.85,1.903 -1.869,3.483 -3.061,4.743 -1.188,1.258 -2.43,2.244 -3.723,2.958 -1.291,0.714 -2.413,1.239 -3.365,1.581 l -3.265,-5.508 c 1.36,-0.545 2.517,-1.412 3.468,-2.602 0.953,-1.19 1.496,-2.465 1.633,-3.824 -1.359,0 -2.602,-0.597 -3.724,-1.786 -1.122,-1.19 -1.682,-2.771 -1.682,-4.742 z m -17.647,0 C 0.359,4.565 1.022,2.984 2.348,1.795 3.674,0.604 5.324,0.01 7.295,0.01 c 2.518,0 4.488,0.799 5.916,2.397 1.429,1.597 2.143,3.723 2.143,6.375 0,2.719 -0.424,5.032 -1.275,6.936 -0.85,1.903 -1.869,3.483 -3.06,4.743 C 9.831,21.719 8.588,22.705 7.295,23.419 6.004,24.133 4.883,24.658 3.93,25 L 0.666,19.492 C 2.026,18.947 3.182,18.08 4.133,16.89 5.086,15.7 5.63,14.425 5.766,13.066 4.407,13.066 3.164,12.469 2.043,11.28 0.92,10.09 0.359,8.509 0.359,6.538 Z"
         inkscape:connector-curvature="0"
         style="fill:#0099ff;fill-opacity:1" />
    </g>
    <g
       style="fill:#0099ff;fill-opacity:1"
       transform="matrix(-4.5227761,0,0,-4.5417344,248.84552,799.45083)"
       id="g4336">
      <path
         style="fill:#0099ff;fill-opacity:1"
         inkscape:connector-curvature="0"
         d="m 18.006,6.538 c 0,-1.973 0.662,-3.554 1.988,-4.743 1.326,-1.19 2.977,-1.785 4.947,-1.785 2.517,0 4.488,0.799 5.916,2.397 C 32.285,4.004 33,6.13 33,8.782 c 0,2.719 -0.424,5.032 -1.275,6.936 -0.85,1.903 -1.869,3.483 -3.061,4.743 -1.188,1.258 -2.43,2.244 -3.723,2.958 -1.291,0.714 -2.413,1.239 -3.365,1.581 l -3.265,-5.508 c 1.36,-0.545 2.517,-1.412 3.468,-2.602 0.953,-1.19 1.496,-2.465 1.633,-3.824 -1.359,0 -2.602,-0.597 -3.724,-1.786 -1.122,-1.19 -1.682,-2.771 -1.682,-4.742 z m -17.647,0 C 0.359,4.565 1.022,2.984 2.348,1.795 3.674,0.604 5.324,0.01 7.295,0.01 c 2.518,0 4.488,0.799 5.916,2.397 1.429,1.597 2.143,3.723 2.143,6.375 0,2.719 -0.424,5.032 -1.275,6.936 -0.85,1.903 -1.869,3.483 -3.06,4.743 C 9.831,21.719 8.588,22.705 7.295,23.419 6.004,24.133 4.883,24.658 3.93,25 L 0.666,19.492 C 2.026,18.947 3.182,18.08 4.133,16.89 5.086,15.7 5.63,14.425 5.766,13.066 4.407,13.066 3.164,12.469 2.043,11.28 0.92,10.09 0.359,8.509 0.359,6.538 Z"
         id="path4338" />
    </g>
  </g>
  <g
     inkscape:groupmode="layer"
     id="layer3"
     inkscape:label="Capa 3"
     transform="translate(0,-540.36216)" />
</svg>
